<?xml version="1.0" encoding="UTF-8"?>
<svg xmlns="http://www.w3.org/2000/svg" width="37.664" height="12.348" viewBox="0 0 37.664 12.348">
  <g id="google-ar21" transform="translate(-5.994 -14.021)">
    <path id="Pfad_111194" data-name="Pfad 111194" d="M15.255,18.383H10.86v1.3h3.117A2.888,2.888,0,0,1,10.865,22.3a3.483,3.483,0,0,1,0-6.966,3.383,3.383,0,0,1,2.35.942l.913-.946a4.644,4.644,0,0,0-3.31-1.3,4.791,4.791,0,1,0,.069,9.581,4.218,4.218,0,0,0,4.442-4.355,3.9,3.9,0,0,0-.08-.865Z" fill="#4885ed"></path>
    <path id="Pfad_111195" data-name="Pfad 111195" d="M36.91,23.754A3.079,3.079,0,1,0,40,26.844a3.043,3.043,0,0,0-3.09-3.09Zm.018,1.21a1.874,1.874,0,1,1-1.759,1.863,1.771,1.771,0,0,1,1.759-1.863Z" transform="translate(-18.055 -6.316)" fill="#db3236"></path>
    <path id="Pfad_111196" data-name="Pfad 111196" d="M36.91,23.754A3.079,3.079,0,1,0,40,26.844a3.043,3.043,0,0,0-3.09-3.09Zm.018,1.21a1.874,1.874,0,1,1-1.759,1.863,1.771,1.771,0,0,1,1.759-1.863Z" transform="translate(-11.322 -6.316)" fill="#f4c20d"></path>
    <path id="Pfad_111197" data-name="Pfad 111197" d="M75.162,23.765a3.083,3.083,0,0,0-.029,6.16,2.02,2.02,0,0,0,1.685-.748v.607a1.545,1.545,0,0,1-1.619,1.7,1.716,1.716,0,0,1-1.58-1.1l-1.184.491a2.964,2.964,0,0,0,2.773,1.814c1.65,0,2.9-1.037,2.9-3.211V23.95H76.823v.522a2.176,2.176,0,0,0-1.66-.707Zm.119,1.207a1.741,1.741,0,0,1,1.645,1.876,1.721,1.721,0,0,1-1.663,1.866,1.749,1.749,0,0,1-1.7-1.854,1.775,1.775,0,0,1,1.721-1.888Z" transform="translate(-42.971 -6.323)" fill="#4885ed"></path>
    <path id="Pfad_111198" data-name="Pfad 111198" d="M100.089,23.744a2.912,2.912,0,0,0-2.872,3.075,2.977,2.977,0,0,0,3.019,3.09,3.119,3.119,0,0,0,2.58-1.351l-1.065-.708a1.724,1.724,0,0,1-1.509.848,1.584,1.584,0,0,1-1.51-.934l4.129-1.713-.211-.5a2.788,2.788,0,0,0-2.561-1.8Zm.054,1.184a1.227,1.227,0,0,1,1.139.658l-2.758,1.152a1.71,1.71,0,0,1,1.615-1.81Z" transform="translate(-59.203 -6.309)" fill="#db3236"></path>
    <path id="Pfad_111199" data-name="Pfad 111199" d="M91.6,24.006h1.356V14.93H91.6Z" transform="translate(-55.557 -0.589)" fill="#3cba54"></path>
  </g>
</svg>
