<?xml version="1.0" encoding="UTF-8"?>
<svg xmlns="http://www.w3.org/2000/svg" width="58" height="10" viewBox="0 0 58 10">
  <g id="Gruppe_61816" data-name="Gruppe 61816" transform="translate(6831.376 23669.623)">
    <path id="Icon_feather-star_-_Kontur" data-name="Icon feather-star - Kontur" d="M7.5,2.5a.349.349,0,0,1,.314.2L9.169,5.581l3.031.464a.355.355,0,0,1,.283.25.379.379,0,0,1-.089.376L10.2,8.909l.518,3.161a.375.375,0,0,1-.139.359.337.337,0,0,1-.369.028L7.5,10.964,4.79,12.458a.337.337,0,0,1-.369-.028.375.375,0,0,1-.139-.359L4.8,8.909,2.606,6.672A.379.379,0,0,1,2.517,6.3a.355.355,0,0,1,.283-.25l3.031-.464L7.186,2.7A.349.349,0,0,1,7.5,2.5Z" transform="translate(-6785.876 -23672.123)" fill="#fcb001"></path>
    <path id="Icon_feather-star_-_Kontur-2" data-name="Icon feather-star - Kontur" d="M7.5,2.5a.349.349,0,0,1,.314.2L9.169,5.581l3.031.464a.355.355,0,0,1,.283.25.379.379,0,0,1-.089.376L10.2,8.909l.518,3.161a.375.375,0,0,1-.139.359.337.337,0,0,1-.369.028L7.5,10.964,4.79,12.458a.337.337,0,0,1-.369-.028.375.375,0,0,1-.139-.359L4.8,8.909,2.606,6.672A.379.379,0,0,1,2.517,6.3a.355.355,0,0,1,.283-.25l3.031-.464L7.186,2.7A.349.349,0,0,1,7.5,2.5Z" transform="translate(-6797.876 -23672.123)" fill="#fcb001"></path>
    <path id="Icon_feather-star_-_Kontur-3" data-name="Icon feather-star - Kontur" d="M7.5,2.5a.349.349,0,0,1,.314.2L9.169,5.581l3.031.464a.355.355,0,0,1,.283.25.379.379,0,0,1-.089.376L10.2,8.909l.518,3.161a.375.375,0,0,1-.139.359.337.337,0,0,1-.369.028L7.5,10.964,4.79,12.458a.337.337,0,0,1-.369-.028.375.375,0,0,1-.139-.359L4.8,8.909,2.606,6.672A.379.379,0,0,1,2.517,6.3a.355.355,0,0,1,.283-.25l3.031-.464L7.186,2.7A.349.349,0,0,1,7.5,2.5Z" transform="translate(-6809.876 -23672.123)" fill="#fcb001"></path>
    <path id="Icon_feather-star_-_Kontur-4" data-name="Icon feather-star - Kontur" d="M7.5,2.5a.349.349,0,0,1,.314.2L9.169,5.581l3.031.464a.355.355,0,0,1,.283.25.379.379,0,0,1-.089.376L10.2,8.909l.518,3.161a.375.375,0,0,1-.139.359.337.337,0,0,1-.369.028L7.5,10.964,4.79,12.458a.337.337,0,0,1-.369-.028.375.375,0,0,1-.139-.359L4.8,8.909,2.606,6.672A.379.379,0,0,1,2.517,6.3a.355.355,0,0,1,.283-.25l3.031-.464L7.186,2.7A.349.349,0,0,1,7.5,2.5Z" transform="translate(-6821.876 -23672.123)" fill="#fcb001"></path>
    <path id="Icon_feather-star_-_Kontur-5" data-name="Icon feather-star - Kontur" d="M7.5,2.5a.349.349,0,0,1,.314.2L9.169,5.581l3.031.464a.355.355,0,0,1,.283.25.379.379,0,0,1-.089.376L10.2,8.909l.518,3.161a.375.375,0,0,1-.139.359.337.337,0,0,1-.369.028L7.5,10.964,4.79,12.458a.337.337,0,0,1-.369-.028.375.375,0,0,1-.139-.359L4.8,8.909,2.606,6.672A.379.379,0,0,1,2.517,6.3a.355.355,0,0,1,.283-.25l3.031-.464L7.186,2.7A.349.349,0,0,1,7.5,2.5Z" transform="translate(-6833.876 -23672.123)" fill="#fcb001"></path>
  </g>
</svg>
